<svg xmlns="http://www.w3.org/2000/svg" xmlns:xlink="http://www.w3.org/1999/xlink" viewBox="0,0,256,256" width="48px" height="48px"><g fill="#f40000" fill-rule="nonzero" stroke="none" stroke-width="1" stroke-linecap="butt" stroke-linejoin="miter" stroke-miterlimit="10" stroke-dasharray="" stroke-dashoffset="0" font-family="none" font-weight="none" font-size="none" text-anchor="none" style="mix-blend-mode: normal"><g transform="scale(8,8)"><path d="M16.38867,6.00195c-0.777,0 -1.0035,1.08008 -1.9375,1.08008c-0.905,0 -1.5622,-0.81055 -2.4082,-0.81055c-0.807,0 -1.32942,0.59255 -1.73242,1.81055c-1.377,4.163 -1.31664,3.98608 -1.30664,4.20508c0,1.332 4.87725,5.70313 11.40625,5.70313v0.00977c1.681,0 4.10938,-0.3753 4.10938,-2.5293c0.02,-0.364 0.04998,-0.09292 -1.04102,-5.16992c-0.226,-1.031 -0.43347,-1.49953 -2.10547,-2.39453c-1.308,-0.719 -4.14837,-1.9043 -4.98437,-1.9043zM8.26953,13.03906c-2.3,0.11 -5.26953,0.53117 -5.26953,3.20117c0,4.37 10.18977,9.75977 18.25977,9.75977c6.18,0 7.74023,-2.83984 7.74023,-5.08984c0,-1.77 -1.50094,-3.7707 -4.21094,-4.9707c0.231,1.238 0.21094,1.61925 0.21094,1.78125c0,2.107 -2.15519,3.2793 -4.99219,3.2793c-6.395,0.011 -12.00781,-4.12656 -12.00781,-6.85156c0,-0.38 0.12953,-0.76138 0.26953,-1.10938z"></path></g></g></svg>